<svg xmlns="http://www.w3.org/2000/svg" xmlns:xlink="http://www.w3.org/1999/xlink" width="80" zoomAndPan="magnify" viewBox="0 0 60 60" height="80" preserveAspectRatio="xMidYMid meet" version="1.0"><defs><clipPath id="6d2e1647ff"><path d="M 32 13 L 41 13 L 41 20.699219 L 32 20.699219 Z M 32 13 " clip-rule="nonzero"/></clipPath><clipPath id="cc661a1c16"><path d="M 31 18 L 33 18 L 33 20.699219 L 31 20.699219 Z M 31 18 " clip-rule="nonzero"/></clipPath><clipPath id="269ae1210a"><path d="M 32 19 L 42 19 L 42 20.699219 L 32 20.699219 Z M 32 19 " clip-rule="nonzero"/></clipPath><clipPath id="a01989e4e8"><path d="M 30 11.699219 L 40 11.699219 L 40 19 L 30 19 Z M 30 11.699219 " clip-rule="nonzero"/></clipPath><clipPath id="038802a12e"><path d="M 19 13 L 28 13 L 28 20.699219 L 19 20.699219 Z M 19 13 " clip-rule="nonzero"/></clipPath><clipPath id="141cf9b4b8"><path d="M 27 18 L 29 18 L 29 20.699219 L 27 20.699219 Z M 27 18 " clip-rule="nonzero"/></clipPath><clipPath id="a20ec20307"><path d="M 18 19 L 28 19 L 28 20.699219 L 18 20.699219 Z M 18 19 " clip-rule="nonzero"/></clipPath><clipPath id="4852495cbf"><path d="M 20 11.699219 L 30 11.699219 L 30 19 L 20 19 Z M 20 11.699219 " clip-rule="nonzero"/></clipPath><clipPath id="ab4eddf960"><path d="M 18 23.195312 L 42 23.195312 L 42 33.695312 L 18 33.695312 Z M 18 23.195312 " clip-rule="nonzero"/></clipPath><clipPath id="a958623fc2"><path d="M 27 30 L 33 30 L 33 33.695312 L 27 33.695312 Z M 27 30 " clip-rule="nonzero"/></clipPath></defs><path fill="#fffc00" d="M 58.824219 43.8125 C 50.800781 42.496094 47.1875 34.316406 47.039062 33.96875 C 47.027344 33.949219 47.023438 33.925781 47.007812 33.902344 C 46.597656 33.074219 46.5 32.390625 46.726562 31.871094 C 47.164062 30.851562 48.84375 30.320312 49.953125 29.96875 C 50.277344 29.867188 50.582031 29.769531 50.832031 29.675781 C 51.925781 29.246094 52.707031 28.777344 53.222656 28.25 C 53.839844 27.621094 53.960938 27.015625 53.953125 26.625 C 53.933594 25.667969 53.199219 24.816406 52.023438 24.402344 C 51.628906 24.242188 51.175781 24.15625 50.71875 24.15625 C 50.410156 24.15625 49.941406 24.199219 49.503906 24.402344 C 48.566406 24.839844 47.726562 25.078125 47.003906 25.113281 C 46.621094 25.09375 46.351562 25.011719 46.175781 24.933594 C 46.195312 24.558594 46.21875 24.175781 46.246094 23.78125 L 46.257812 23.609375 C 46.515625 19.566406 46.832031 14.539062 45.492188 11.550781 C 44.574219 9.503906 43.339844 7.746094 41.820312 6.320312 C 40.550781 5.125 39.070312 4.15625 37.429688 3.4375 C 34.574219 2.183594 31.914062 2 30.578125 2 L 30.425781 2 C 30.054688 2.003906 29.453125 2.007812 29.394531 2.007812 C 28.066406 2.007812 25.398438 2.195312 22.539062 3.449219 C 20.898438 4.167969 19.429688 5.132812 18.160156 6.328125 C 16.648438 7.753906 15.417969 9.507812 14.503906 11.546875 C 13.164062 14.53125 13.480469 19.558594 13.734375 23.597656 L 13.734375 23.605469 C 13.761719 24.039062 13.792969 24.488281 13.816406 24.929688 C 13.621094 25.015625 13.304688 25.113281 12.835938 25.113281 C 12.078125 25.113281 11.179688 24.875 10.160156 24.398438 C 9.863281 24.261719 9.519531 24.191406 9.144531 24.191406 C 8.542969 24.191406 7.902344 24.367188 7.347656 24.691406 C 6.652344 25.097656 6.203125 25.667969 6.078125 26.304688 C 6 26.726562 6.003906 27.558594 6.933594 28.402344 C 7.445312 28.863281 8.195312 29.292969 9.167969 29.675781 C 9.421875 29.773438 9.726562 29.867188 10.046875 29.96875 C 11.15625 30.320312 12.839844 30.851562 13.277344 31.871094 C 13.5 32.390625 13.402344 33.074219 12.992188 33.902344 C 12.980469 33.925781 12.96875 33.949219 12.964844 33.96875 C 12.859375 34.210938 11.902344 36.355469 9.941406 38.621094 C 8.828125 39.910156 7.601562 40.988281 6.296875 41.824219 C 4.703125 42.847656 2.980469 43.511719 1.175781 43.808594 C 0.46875 43.921875 -0.0390625 44.550781 0.00390625 45.261719 C 0.015625 45.46875 0.0625 45.671875 0.148438 45.871094 L 0.148438 45.875 C 0.4375 46.542969 1.101562 47.105469 2.183594 47.601562 C 3.5 48.210938 5.472656 48.722656 8.050781 49.121094 C 8.179688 49.371094 8.316406 49.984375 8.410156 50.40625 C 8.507812 50.855469 8.609375 51.316406 8.753906 51.804688 C 8.914062 52.335938 9.316406 52.972656 10.363281 52.972656 C 10.761719 52.972656 11.214844 52.882812 11.742188 52.78125 C 12.515625 52.632812 13.574219 52.425781 14.890625 52.425781 C 15.621094 52.425781 16.378906 52.488281 17.140625 52.617188 C 18.609375 52.859375 19.878906 53.746094 21.34375 54.777344 C 23.488281 56.285156 25.917969 57.992188 29.632812 57.992188 C 29.734375 57.992188 29.835938 57.988281 29.9375 57.980469 C 30.054688 57.988281 30.210938 57.992188 30.367188 57.992188 C 34.082031 57.992188 36.507812 56.285156 38.65625 54.78125 L 38.660156 54.777344 C 40.125 53.75 41.390625 52.863281 42.863281 52.621094 C 43.625 52.492188 44.378906 52.429688 45.113281 52.429688 C 46.371094 52.429688 47.371094 52.589844 48.257812 52.761719 C 48.839844 52.875 49.289062 52.929688 49.640625 52.929688 L 49.707031 52.929688 C 50.472656 52.929688 51.035156 52.511719 51.246094 51.785156 C 51.390625 51.304688 51.492188 50.855469 51.59375 50.394531 C 51.679688 50 51.820312 49.367188 51.949219 49.117188 C 54.523438 48.714844 56.496094 48.207031 57.816406 47.597656 C 58.894531 47.101562 59.558594 46.539062 59.847656 45.875 C 59.933594 45.675781 59.984375 45.472656 59.996094 45.257812 C 60.039062 44.554688 59.53125 43.921875 58.824219 43.8125 Z M 58.824219 43.8125 " fill-opacity="1" fill-rule="nonzero"/><g clip-path="url(#6d2e1647ff)"><path fill="#ffffff" d="M 37.835938 13.484375 C 37.828125 13.484375 37.816406 13.480469 37.808594 13.480469 C 36.050781 14.078125 33.828125 15.378906 32.28125 18.199219 C 32.320312 18.964844 32.546875 19.691406 32.929688 20.316406 C 33.871094 19.96875 36.847656 19.019531 40.652344 19.238281 C 40.6875 19.132812 40.722656 19.027344 40.753906 18.921875 C 41.433594 16.53125 40.125 14.097656 37.835938 13.484375 " fill-opacity="1" fill-rule="nonzero"/></g><path fill="#211c1d" d="M 36.089844 15.917969 C 35.109375 15.65625 34.09375 16.214844 33.824219 17.164062 C 33.554688 18.117188 34.128906 19.097656 35.109375 19.359375 C 36.09375 19.621094 37.105469 19.0625 37.375 18.113281 C 37.648438 17.164062 37.070312 16.179688 36.089844 15.917969 " fill-opacity="1" fill-rule="nonzero"/><path fill="#ffffff" d="M 36.511719 16.222656 C 36.246094 16.152344 35.96875 16.304688 35.898438 16.5625 C 35.824219 16.820312 35.980469 17.085938 36.246094 17.15625 C 36.511719 17.226562 36.785156 17.074219 36.859375 16.816406 C 36.933594 16.5625 36.777344 16.292969 36.511719 16.222656 " fill-opacity="1" fill-rule="nonzero"/><path fill="#ffffff" d="M 35.617188 17.042969 C 35.5 17.011719 35.378906 17.078125 35.347656 17.191406 C 35.316406 17.304688 35.382812 17.421875 35.5 17.453125 C 35.617188 17.484375 35.738281 17.417969 35.769531 17.304688 C 35.800781 17.191406 35.734375 17.074219 35.617188 17.042969 " fill-opacity="1" fill-rule="nonzero"/><g clip-path="url(#cc661a1c16)"><path fill="#211c1d" d="M 32.28125 18.199219 C 32.15625 18.433594 32.035156 18.671875 31.917969 18.925781 C 32.054688 19.464844 32.289062 19.980469 32.609375 20.4375 C 32.613281 20.4375 32.726562 20.390625 32.929688 20.316406 C 32.546875 19.691406 32.320312 18.964844 32.28125 18.199219 " fill-opacity="1" fill-rule="nonzero"/></g><path fill="#211c1d" d="M 38.121094 13.378906 C 38.019531 13.410156 37.914062 13.441406 37.808594 13.480469 C 37.816406 13.480469 37.828125 13.484375 37.835938 13.484375 C 40.125 14.097656 41.433594 16.53125 40.753906 18.921875 C 40.722656 19.027344 40.6875 19.132812 40.652344 19.238281 C 40.828125 19.246094 41.007812 19.257812 41.191406 19.273438 C 41.214844 19.203125 41.238281 19.128906 41.257812 19.054688 C 41.945312 16.644531 40.546875 14.152344 38.121094 13.378906 " fill-opacity="1" fill-rule="nonzero"/><path fill="#211c1d" d="M 38.390625 13.300781 C 38.3125 13.320312 38.234375 13.34375 38.152344 13.367188 C 38.558594 13.457031 39.351562 13.636719 40.074219 13.832031 C 40.074219 13.832031 39.371094 13.511719 38.390625 13.300781 " fill-opacity="1" fill-rule="nonzero"/><g clip-path="url(#269ae1210a)"><path fill="#211c1d" d="M 32.609375 20.4375 C 32.609375 20.4375 36.101562 18.9375 41.191406 19.273438 L 41.433594 19.574219 C 41.433594 19.574219 36.117188 19.078125 32.234375 20.699219 L 32.609375 20.4375 " fill-opacity="1" fill-rule="nonzero"/></g><path fill="#211c1d" d="M 38.390625 13.300781 C 38.390625 13.300781 33.703125 14.535156 31.765625 19.386719 C 31.765625 19.386719 32.457031 14.933594 38.589844 13.078125 L 38.390625 13.300781 " fill-opacity="1" fill-rule="nonzero"/><g clip-path="url(#a01989e4e8)"><path fill="#211c1d" d="M 30.964844 18.703125 C 30.964844 18.703125 31.832031 14.359375 39.113281 11.699219 C 39.113281 11.699219 34.578125 12.300781 31.765625 15.035156 L 32.929688 14.695312 C 32.929688 14.695312 31.546875 15.386719 30.542969 16.691406 L 30.964844 18.703125 " fill-opacity="1" fill-rule="nonzero"/></g><g clip-path="url(#038802a12e)"><path fill="#ffffff" d="M 19.246094 18.921875 C 19.277344 19.027344 19.3125 19.132812 19.347656 19.238281 C 23.152344 19.019531 26.128906 19.96875 27.070312 20.316406 C 27.453125 19.691406 27.679688 18.964844 27.71875 18.199219 C 26.171875 15.378906 23.949219 14.078125 22.191406 13.480469 C 22.183594 13.480469 22.171875 13.484375 22.164062 13.484375 C 19.875 14.097656 18.566406 16.53125 19.246094 18.921875 " fill-opacity="1" fill-rule="nonzero"/></g><path fill="#211c1d" d="M 22.625 18.113281 C 22.894531 19.0625 23.90625 19.621094 24.890625 19.359375 C 25.871094 19.097656 26.445312 18.117188 26.175781 17.164062 C 25.90625 16.214844 24.894531 15.65625 23.910156 15.917969 C 22.929688 16.179688 22.351562 17.164062 22.625 18.113281 " fill-opacity="1" fill-rule="nonzero"/><path fill="#ffffff" d="M 23.140625 16.816406 C 23.214844 17.074219 23.488281 17.226562 23.753906 17.15625 C 24.019531 17.085938 24.175781 16.820312 24.101562 16.5625 C 24.03125 16.304688 23.753906 16.152344 23.488281 16.222656 C 23.222656 16.292969 23.066406 16.5625 23.140625 16.816406 " fill-opacity="1" fill-rule="nonzero"/><path fill="#ffffff" d="M 24.230469 17.304688 C 24.261719 17.417969 24.382812 17.484375 24.5 17.453125 C 24.617188 17.421875 24.683594 17.304688 24.652344 17.191406 C 24.621094 17.078125 24.5 17.011719 24.382812 17.042969 C 24.265625 17.074219 24.199219 17.191406 24.230469 17.304688 " fill-opacity="1" fill-rule="nonzero"/><g clip-path="url(#141cf9b4b8)"><path fill="#211c1d" d="M 27.71875 18.199219 C 27.84375 18.433594 27.964844 18.671875 28.082031 18.925781 C 27.945312 19.464844 27.710938 19.980469 27.390625 20.4375 C 27.386719 20.4375 27.273438 20.390625 27.070312 20.316406 C 27.453125 19.691406 27.679688 18.964844 27.71875 18.199219 " fill-opacity="1" fill-rule="nonzero"/></g><path fill="#211c1d" d="M 21.878906 13.378906 C 21.980469 13.410156 22.085938 13.441406 22.191406 13.480469 C 22.183594 13.480469 22.171875 13.484375 22.164062 13.484375 C 19.875 14.097656 18.566406 16.53125 19.246094 18.921875 C 19.277344 19.027344 19.3125 19.132812 19.347656 19.238281 C 19.171875 19.246094 18.992188 19.257812 18.808594 19.273438 C 18.785156 19.203125 18.761719 19.128906 18.742188 19.054688 C 18.054688 16.644531 19.453125 14.152344 21.878906 13.378906 " fill-opacity="1" fill-rule="nonzero"/><path fill="#211c1d" d="M 21.609375 13.300781 C 21.6875 13.320312 21.765625 13.34375 21.847656 13.367188 C 21.441406 13.457031 20.648438 13.636719 19.925781 13.832031 C 19.925781 13.832031 20.628906 13.511719 21.609375 13.300781 " fill-opacity="1" fill-rule="nonzero"/><g clip-path="url(#a20ec20307)"><path fill="#211c1d" d="M 27.390625 20.4375 C 27.390625 20.4375 23.898438 18.9375 18.808594 19.273438 L 18.566406 19.574219 C 18.566406 19.574219 23.882812 19.078125 27.765625 20.699219 L 27.390625 20.4375 " fill-opacity="1" fill-rule="nonzero"/></g><path fill="#211c1d" d="M 21.609375 13.300781 C 21.609375 13.300781 26.296875 14.535156 28.234375 19.386719 C 28.234375 19.386719 27.542969 14.933594 21.410156 13.078125 L 21.609375 13.300781 " fill-opacity="1" fill-rule="nonzero"/><g clip-path="url(#4852495cbf)"><path fill="#211c1d" d="M 29.035156 18.703125 C 29.035156 18.703125 28.167969 14.359375 20.886719 11.699219 C 20.886719 11.699219 25.421875 12.300781 28.234375 15.035156 L 27.070312 14.695312 C 27.070312 14.695312 28.453125 15.386719 29.457031 16.691406 L 29.035156 18.703125 " fill-opacity="1" fill-rule="nonzero"/></g><g clip-path="url(#ab4eddf960)"><path fill="#000000" d="M 18.398438 25.132812 C 18.40625 25.097656 18.414062 25.0625 18.421875 25.03125 L 18.453125 24.929688 C 18.46875 24.867188 18.5 24.804688 18.519531 24.742188 C 18.574219 24.625 18.628906 24.511719 18.699219 24.410156 C 18.769531 24.308594 18.84375 24.210938 18.929688 24.121094 C 19.101562 23.949219 19.304688 23.804688 19.542969 23.699219 L 19.585938 23.679688 L 19.632812 23.660156 C 19.664062 23.652344 19.695312 23.636719 19.730469 23.625 C 19.792969 23.609375 19.863281 23.582031 19.933594 23.566406 C 20.003906 23.550781 20.074219 23.535156 20.152344 23.523438 C 20.242188 23.507812 20.265625 23.390625 20.1875 23.347656 C 20.113281 23.304688 20.03125 23.273438 19.945312 23.25 C 19.863281 23.222656 19.777344 23.210938 19.6875 23.199219 C 19.644531 23.195312 19.601562 23.199219 19.554688 23.195312 L 19.488281 23.195312 C 19.46875 23.199219 19.445312 23.199219 19.421875 23.203125 C 19.0625 23.234375 18.714844 23.410156 18.457031 23.671875 C 18.328125 23.800781 18.226562 23.957031 18.148438 24.121094 C 18.074219 24.285156 18.03125 24.464844 18.015625 24.640625 C 18.015625 24.683594 18.015625 24.730469 18.015625 24.773438 C 18.015625 24.796875 18.015625 24.816406 18.015625 24.839844 C 18.019531 24.859375 18.023438 24.882812 18.023438 24.90625 C 18.03125 24.949219 18.035156 24.992188 18.046875 25.03125 C 18.054688 25.074219 18.066406 25.117188 18.078125 25.15625 C 18.101562 25.222656 18.128906 25.289062 18.160156 25.347656 C 18.210938 25.441406 18.351562 25.417969 18.367188 25.3125 C 18.375 25.25 18.386719 25.191406 18.398438 25.132812 Z M 41.636719 25.3125 C 41.648438 25.417969 41.792969 25.441406 41.839844 25.347656 C 41.875 25.289062 41.902344 25.222656 41.921875 25.15625 C 41.9375 25.117188 41.945312 25.074219 41.957031 25.03125 C 41.964844 24.992188 41.96875 24.949219 41.976562 24.90625 C 41.980469 24.882812 41.984375 24.859375 41.984375 24.839844 C 41.988281 24.816406 41.988281 24.796875 41.988281 24.773438 C 41.988281 24.730469 41.988281 24.683594 41.988281 24.640625 C 41.972656 24.464844 41.929688 24.285156 41.851562 24.121094 C 41.773438 23.957031 41.671875 23.800781 41.542969 23.671875 C 41.289062 23.410156 40.9375 23.234375 40.578125 23.203125 C 40.558594 23.199219 40.535156 23.199219 40.511719 23.195312 L 40.445312 23.195312 C 40.402344 23.199219 40.355469 23.195312 40.3125 23.199219 C 40.226562 23.210938 40.140625 23.222656 40.054688 23.25 C 39.972656 23.273438 39.890625 23.304688 39.816406 23.347656 C 39.734375 23.390625 39.757812 23.507812 39.847656 23.523438 C 39.851562 23.523438 39.851562 23.523438 39.851562 23.523438 C 39.925781 23.535156 40 23.550781 40.070312 23.566406 C 40.140625 23.582031 40.207031 23.609375 40.273438 23.625 C 40.304688 23.636719 40.335938 23.652344 40.367188 23.660156 L 40.460938 23.699219 C 40.699219 23.804688 40.902344 23.949219 41.074219 24.121094 C 41.160156 24.210938 41.234375 24.308594 41.304688 24.410156 C 41.371094 24.511719 41.429688 24.625 41.484375 24.742188 C 41.503906 24.804688 41.53125 24.867188 41.550781 24.929688 L 41.578125 25.03125 C 41.589844 25.0625 41.597656 25.097656 41.601562 25.132812 C 41.617188 25.191406 41.625 25.25 41.636719 25.3125 Z M 40.683594 24.925781 C 39.070312 26.355469 37.007812 29.738281 35.570312 31.015625 C 33.78125 32.609375 31.832031 33.695312 29.914062 33.695312 C 28.011719 33.695312 25.984375 32.636719 24.300781 31.035156 C 22.917969 29.722656 20.828125 26.40625 19.222656 24.996094 C 19.101562 24.886719 19.089844 24.703125 19.199219 24.582031 C 19.308594 24.464844 19.492188 24.453125 19.613281 24.558594 C 21.683594 26.378906 23.933594 26.066406 26.25 25.636719 C 27.457031 25.410156 28.683594 25.15625 29.914062 25.15625 C 31.011719 25.15625 32.105469 25.355469 33.1875 25.550781 C 35.671875 26.003906 38.082031 26.449219 40.289062 24.488281 C 40.410156 24.382812 40.597656 24.394531 40.703125 24.511719 C 40.8125 24.632812 40.804688 24.816406 40.683594 24.925781 " fill-opacity="1" fill-rule="nonzero"/></g><g clip-path="url(#a958623fc2)"><path fill="#fb2e01" d="M 32.722656 31.921875 C 32.792969 32.085938 32.734375 32.28125 32.582031 32.378906 C 31.945312 32.769531 31.308594 33.019531 30.671875 33.066406 C 30.304688 33.09375 29.941406 33.109375 29.585938 33.109375 C 28.800781 33.109375 28.042969 32.816406 27.3125 32.316406 C 27.164062 32.21875 27.113281 32.023438 27.1875 31.863281 C 27.664062 30.828125 28.714844 30.109375 29.941406 30.109375 C 31.1875 30.109375 32.257812 30.855469 32.722656 31.921875 " fill-opacity="1" fill-rule="nonzero"/></g><path fill="#ffffff" d="M 33.1875 26.222656 L 33.1875 26.96875 C 33.1875 27.003906 33.1875 27.035156 33.183594 27.066406 C 33.125 28.539062 31.605469 29.519531 30.199219 29.03125 L 29.71875 28.863281 L 29.238281 29.03125 C 27.828125 29.519531 26.3125 28.539062 26.25 27.066406 C 26.25 27.035156 26.25 27.003906 26.25 26.96875 L 26.25 26.304688 C 27.457031 26.082031 28.683594 25.828125 29.914062 25.828125 C 31.011719 25.828125 32.105469 26.023438 33.1875 26.222656 " fill-opacity="1" fill-rule="nonzero"/></svg>